<?xml version="1.0" encoding="UTF-8" standalone="no"?>
<svg  data-name="Layer 2" xmlns="http://www.w3.org/2000/svg" viewBox="0 0 273.11 289"><defs><style>.cls-1{fill:#fff;fill-rule:evenodd;}</style></defs><g  data-name="Layer 3"><path class="cls-1" d="M664.74,388.86q0,32.77,17.82,32.78,10.56,0,18-13V359.6a31.16,31.16,0,0,0-15.4-4.18Q664.74,355.42,664.74,388.86Z" transform="translate(-555.44 -221)"/><path class="cls-1" d="M820.08,221h-208a12.29,12.29,0,0,0-11.66,10L555.58,500c-.92,5.52,2.81,10,8.34,10h208a12.29,12.29,0,0,0,11.66-10l44.84-269C829.34,225.48,825.61,221,820.08,221ZM726.89,445a82.68,82.68,0,0,1-15.73,1.76,5.57,5.57,0,0,1-5.5-3.19,29.62,29.62,0,0,1-2.31-6.82q-.78-3.63-1-4.95a31,31,0,0,1-11.77,11.88,34.13,34.13,0,0,1-17.71,4.62,34.74,34.74,0,0,1-21.23-6.93Q642.29,434.4,637,421t-5.28-32.12q0-27.28,12.21-43.23t34.21-15.95q13,0,22.44,6.82V287.66q0-7,13.2-7H720q13.2,0,13.2,7V407.78q0,10.13.55,15.4t1.43,11.66a22.18,22.18,0,0,1,.66,4.84Q735.8,443.2,726.89,445Z" transform="translate(-555.44 -221)"/></g></svg>